HIERARCHY
ROOT hip
{
	OFFSET 0.000000 0.000000 0.000000 
	CHANNELS 6 Xposition Yposition Zposition Xrotation Zrotation Yrotation
	JOINT abdomen
	{
		OFFSET 0.000000 3.402643 0.000000 
		CHANNELS 3 Xrotation Zrotation Yrotation
		JOINT chest
		{
			OFFSET 0.000000 8.438565 -0.680529 
			CHANNELS 3 Xrotation Zrotation Yrotation
			JOINT neck
			{
				OFFSET 0.000000 10.207942 -0.272212 
				CHANNELS 3 Xrotation Zrotation Yrotation
				JOINT head
				{
					OFFSET 0.000000 3.130431 0.000000 
					CHANNELS 3 Xrotation Zrotation Yrotation
					End Site
					{
						OFFSET 0.000000 3.130435 0.000000 
					}
				}
			}
			JOINT lCollar
			{
				OFFSET 3.470700 6.669187 -0.816635 
				CHANNELS 3 Yrotation Zrotation Xrotation
				JOINT lShldr
				{
					OFFSET 3.198488 0.000000 0.000000 
					CHANNELS 3 Zrotation Yrotation Xrotation
					JOINT lForeArm
					{
						OFFSET 10.139888 0.000000 0.000000 
						CHANNELS 3 Yrotation Zrotation Xrotation
						JOINT lHand
						{
							OFFSET 8.370511 0.000000 0.000000 
							CHANNELS 3 Zrotation Yrotation Xrotation
							End Site
							{
								OFFSET 4.083176 0.000000 0.000000 
							}
						}
					}
				}
			}
			JOINT rCollar
			{
				OFFSET -3.470700 6.669187 -0.816635 
				CHANNELS 3 Yrotation Zrotation Xrotation
				JOINT rShldr
				{
					OFFSET -3.198488 0.000000 0.000000 
					CHANNELS 3 Zrotation Yrotation Xrotation
					JOINT rForeArm
					{
						OFFSET -10.139888 0.000000 0.000000 
						CHANNELS 3 Yrotation Zrotation Xrotation
						JOINT rHand
						{
							OFFSET -8.370511 0.000000 0.000000 
							CHANNELS 3 Zrotation Yrotation Xrotation
							End Site
							{
								OFFSET -4.083176 0.000000 0.000000 
							}
						}
					}
				}
			}
		}
	}
	JOINT lThigh
	{
		OFFSET 5.308129 -1.633274 1.361059 
		CHANNELS 3 Xrotation Zrotation Yrotation
		JOINT lShin
		{
			OFFSET -2.041588 -20.007561 0.000000 
			CHANNELS 3 Xrotation Zrotation Yrotation
			JOINT lFoot
			{
				OFFSET 0.000000 -19.190928 -1.224953 
				CHANNELS 3 Xrotation Yrotation Zrotation
				End Site
				{
					OFFSET 0.000000 -2.449906 4.627600 
				}
			}
		}
	}
	JOINT rThigh
	{
		OFFSET -5.308129 -1.633274 1.361059 
		CHANNELS 3 Xrotation Zrotation Yrotation
		JOINT rShin
		{
			OFFSET 2.041588 -20.007561 0.000000 
			CHANNELS 3 Xrotation Zrotation Yrotation
			JOINT rFoot
			{
				OFFSET 0.000000 -19.190928 -1.224953 
				CHANNELS 3 Xrotation Yrotation Zrotation
				End Site
				{
					OFFSET 0.000000 -2.449906 4.627600 
				}
			}
		}
	}
}
MOTION
Frames: 13
Frame Time: 0.033333
-6.042730 52.284744 75.213921 6.855469 4.355469 -6.669180 62.845081 -12.193026 11.151454 -16.494143 16.943357 10.625000 51.553619 8.070152 2.616707 -85.214844 -0.488281 -23.916018 2.000000 -2.000000 0.000000 -94.716797 24.082033 -7.359294 -64.571007 -1.259439 -2.358403 -27.898523 45.325932 -18.846498 -2.000000 2.000000 0.000000 71.250000 -5.986328 -32.978516 55.576832 1.063889 -2.360182 23.605116 -49.143711 -17.669428 -19.164572 3.895253 -0.560459 16.913580 -5.634858 -2.128065 0.462245 0.169207 -4.712671 -12.304626 -18.270794 -9.895312 30.313797 4.803313 2.925650 4.604902 1.090602 -2.372453 
-5.804827 52.322403 75.577515 6.855469 4.003906 -6.894532 63.133659 -12.457817 11.337418 -16.660154 17.128906 10.432563 51.553619 8.070152 2.616707 -84.873047 -0.673828 -24.189571 2.000000 -2.000000 0.000000 -95.039063 22.626951 -7.402343 -64.395508 -1.250257 -2.368716 -29.386183 44.785316 -18.501383 -2.000000 2.000000 0.000000 72.060547 -6.220703 -32.880863 55.401051 1.063889 -2.360182 23.867111 -49.052887 -17.938368 -18.124861 3.740184 -0.858222 15.854165 -5.652988 -2.007903 0.502348 0.640026 -5.130528 -12.166033 -18.276289 -10.978602 30.148178 4.822893 2.761123 7.170034 1.400186 -3.944284 
-5.581133 52.307343 75.939346 6.855469 3.662110 -7.109375 63.121994 -12.611984 11.331321 -16.660154 17.128906 10.432563 51.553619 8.070152 2.616707 -84.355469 -0.722656 -24.355593 2.000000 -2.000000 0.000000 -95.429688 21.562500 -7.548828 -64.407616 -1.089056 -2.456321 -30.758947 44.643700 -17.973656 -2.000000 2.000000 0.000000 72.617195 -6.181641 -33.008865 55.049767 1.054707 -2.370493 23.556627 -49.631115 -17.247501 -17.087175 3.788380 -1.342973 14.972484 -5.671450 -1.951825 0.379911 0.904085 -5.366708 -12.996929 -19.108358 -11.822021 31.544521 4.735034 2.857094 11.592883 1.820607 -5.911179 
-5.374151 52.179268 76.299240 6.855469 3.310547 -7.167968 63.338654 -12.542291 11.167920 -16.660154 17.128906 10.432563 51.553619 8.070152 2.616707 -83.984375 -0.615234 -24.462999 2.000000 -2.000000 0.000000 -96.318359 20.947266 -8.267992 -64.231834 -1.089056 -2.456321 -31.962286 44.282944 -18.577421 -2.000000 2.000000 0.000000 72.587891 -5.585938 -33.291016 55.046673 1.184954 -2.255173 23.290569 -49.497112 -17.086664 -16.387327 3.806213 -1.519120 14.428503 -5.698646 -1.886933 0.033731 1.468225 -5.522445 -15.181917 -19.914263 -12.635638 34.184052 4.598970 3.110636 19.100355 1.840520 -8.268241 
-5.186398 52.006004 76.656326 6.660156 2.949219 -7.207031 63.640526 -12.478970 10.705664 -16.826172 17.304688 10.432592 51.553619 8.070152 2.616707 -83.623047 -0.517578 -24.199310 2.000000 -2.000000 0.000000 -97.119141 20.898438 -9.609374 -64.219727 -1.250257 -2.368716 -32.802525 44.233467 -19.428324 -2.000000 2.000000 0.000000 71.533203 -4.687500 -33.437500 55.046673 1.184954 -2.255173 23.117144 -48.730324 -17.097448 -15.655569 3.611237 -1.348279 14.435475 -5.642029 -2.368344 -0.514095 1.439819 -5.431706 -17.801363 -20.798065 -13.247779 36.978619 4.062125 3.383743 29.932581 1.144266 -10.519484 
-5.020390 52.006004 77.010201 6.494141 2.792969 -7.246094 63.944035 -12.254493 10.231400 -16.826172 17.304688 10.432592 51.553619 8.070152 2.616707 -82.890625 -0.283203 -24.228565 2.000000 -2.000000 0.000000 -98.369141 21.523438 -10.830078 -64.243927 -0.927852 -2.543926 -32.852863 44.724060 -20.410646 -2.000000 2.000000 0.000000 69.765625 -3.271484 -33.750000 55.401062 1.054140 -2.360748 23.074236 -47.566246 -17.191441 -15.323036 3.806273 -1.522616 14.781482 -5.679643 -1.925696 -1.166883 1.103714 -5.671160 -19.773310 -21.392996 -13.194761 38.240990 4.319745 3.317259 39.796219 -0.494947 -12.215778 
-4.878672 52.006004 77.360374 6.142578 2.431641 -7.128492 64.257156 -12.035527 9.744806 -16.826172 17.304688 10.256811 51.553619 8.070152 2.616707 -82.324219 -0.048828 -24.062500 2.000000 -2.000000 0.000000 -99.326172 22.060549 -12.158203 -64.419716 -0.918103 -2.544493 -32.994312 44.963627 -21.263308 -2.000000 2.000000 0.000000 68.095703 -2.148437 -34.101559 55.769566 0.873885 -2.625442 22.857168 -46.495518 -17.688683 -14.951678 3.913541 -0.822904 15.496525 -5.663864 -1.996673 -1.458727 0.142557 -4.834321 -18.570063 -21.242306 -13.255629 37.888454 4.364866 3.418756 38.197151 -1.163333 -13.985188 
-4.763752 51.960808 77.706238 5.791016 2.255860 -6.972272 64.617813 -11.586306 9.114064 -16.826172 17.304688 10.256811 51.553619 8.070152 2.616707 -81.416016 0.341797 -23.955078 2.000000 -2.000000 0.000000 -99.707031 22.109375 -13.330078 -64.746803 -1.249690 -2.358970 -32.611023 44.314854 -22.058971 -2.000000 2.000000 0.000000 67.285156 -1.386719 -33.789299 55.756702 1.013895 -2.509758 22.702614 -46.110493 -17.736088 -14.531156 4.137235 0.366730 16.383760 -5.875543 -1.926687 -2.291917 -0.743649 -3.361406 -17.417858 -20.773527 -12.835496 37.888454 4.364861 3.418754 36.103004 -1.685318 -15.731603 
-4.678167 51.855328 78.047134 5.263672 1.914063 -6.689126 64.823975 -11.180639 8.320292 -16.826172 17.304688 10.256811 51.553619 8.070152 2.616707 -80.703125 0.576172 -23.788965 2.000000 -2.000000 0.000000 -99.189453 21.191404 -13.642580 -65.642220 -1.086895 -2.250913 -31.907141 42.824425 -22.114021 -2.000000 2.000000 0.000000 67.265625 -1.259766 -32.109375 55.400803 1.043823 -2.351567 22.465557 -46.241367 -17.234425 -14.100085 4.491827 2.018153 17.634634 -5.686762 -1.644645 -3.491564 -2.747576 -2.480715 -16.590942 -20.310875 -11.455646 37.888355 4.358823 3.436200 34.364208 -2.604373 -16.587097 
-4.624427 51.734795 78.382614 4.746094 1.748047 -6.357124 65.179520 -10.727121 7.681282 -16.826172 17.304688 10.256811 51.553619 8.070152 2.616707 -79.775391 0.966797 -23.671875 2.000000 -2.000000 0.000000 -98.261719 19.697268 -13.434208 -66.876213 -0.762232 -2.387329 -30.768885 40.460232 -21.999477 -2.000000 2.000000 0.000000 68.271484 -2.001953 -29.404295 54.874004 1.035208 -2.371624 22.537437 -46.624271 -17.219444 -13.907336 4.615785 2.550778 19.208967 -5.486510 -1.949524 -4.516084 -3.565531 -2.310871 -21.401072 -20.442665 -8.859540 42.102024 4.061771 3.579688 31.068075 -2.605710 -15.495623 
-4.605070 51.742329 78.712051 4.218750 1.572266 -5.859107 65.588997 -10.260208 6.754583 -16.650391 17.304689 10.302735 51.553619 8.070152 2.616707 -79.062500 1.210938 -23.300573 2.000000 -2.000000 0.000000 -97.109375 18.408203 -13.330076 -68.307739 -0.627891 -2.600492 -29.257553 38.633297 -21.231743 -2.000000 2.000000 0.000000 68.984375 -2.597656 -26.816847 54.171154 1.026026 -2.381935 22.418806 -47.461716 -16.930000 -14.110543 4.980301 2.662834 21.151964 -5.685762 -2.532882 -4.405517 -3.954916 -2.302372 -28.367924 -20.448286 -5.178252 47.361446 3.495979 4.108065 24.454355 -1.171328 -11.840472 
-4.622590 51.591663 79.035027 3.496094 1.572266 -5.351294 65.795853 -9.695362 5.961389 -16.630859 17.470703 10.341797 51.553619 8.070152 2.616707 -78.154297 1.435547 -23.095459 2.000000 -2.000000 0.000000 -95.937500 17.109377 -13.454156 -69.338287 -0.989298 -2.423011 -28.053146 36.397717 -20.908922 -2.000000 2.000000 0.000000 69.980469 -3.486328 -24.463261 53.628822 1.366780 -2.185924 22.298439 -48.308907 -16.630375 -14.154783 4.734316 1.321735 23.110348 -5.829852 -2.610199 -5.125226 -3.605850 -2.798174 -32.362282 -19.638145 -2.808107 47.538563 3.486257 4.108472 18.937284 -0.318796 -7.656099 
-4.677634 51.365669 79.352669 2.109375 1.748047 -4.501655 65.965286 -9.222372 5.333715 -16.630859 17.470703 10.341797 51.553619 8.070152 2.616707 -77.421875 1.699219 -22.870806 2.000000 -2.000000 0.000000 -95.761719 16.787109 -13.063587 -69.689850 -0.989297 -2.423011 -27.401121 35.440334 -20.705326 -2.000000 2.000000 0.000000 71.083984 -4.150391 -23.155003 53.290184 1.197540 -2.303333 21.938551 -49.003624 -16.188141 -13.838824 4.157232 0.183897 25.394938 -5.566358 -2.844186 -6.106903 -3.711766 -3.344293 -27.195932 -17.899504 -3.036251 31.544193 4.735002 2.866790 19.655802 -0.495361 -3.643339 
